<svg xmlns:xlink="http://www.w3.org/1999/xlink" xmlns="http://www.w3.org/2000/svg" width="50" height="50"><defs><linearGradient x1="9.216%" y1="100%" x2="96.619%" y2="60.827%" id="a"><stop stop-color="#2E4469" offset="0%"/><stop stop-color="#6F90BC" offset="100%"/></linearGradient><linearGradient x1="12.508%" y1="77.952%" x2="75.022%" y2="60.827%" id="b"><stop stop-color="#2E4469" offset="0%"/><stop stop-color="#6F90BC" offset="100%"/></linearGradient></defs><g fill="none" fill-rule="evenodd"><rect width="192" height="84" rx="14" transform="translate(-17 -17)" stroke="#F0F0F0"/><path d="M19.151 2.36l-.001 4.104H3.762c-.529 0-.964.4-1.02.915l-.006.112c0 .566.46 1.026 1.026 1.026l15.388-.001.001 15.048H2.736A2.736 2.736 0 010 20.83V5.097A2.736 2.736 0 012.736 2.36l16.415-.001z" fill="url(#a)" transform="translate(5 10)"/><path d="M39.107 0c.515 0 .933.417.933.932v28.114a.934.934 0 01-1.497.742l-2.07-1.57-1.616 1.509a.934.934 0 01-1.296-.021l-1.393-1.388-1.386 1.386a.934.934 0 01-1.3.02l-1.54-1.447-1.556 1.45a.934.934 0 01-1.294-.02l-1.47-1.459-1.9 1.525c-.61.489-1.518.053-1.518-.727V.932c0-.515.418-.932.933-.932zm-9.669 12.52h-6.156a1.026 1.026 0 100 2.053h6.156a1.026 1.026 0 000-2.052zm3.42-4.103h-9.576a1.026 1.026 0 100 2.052h9.576a1.026 1.026 0 000-2.052zm3.42-4.104H23.282a1.026 1.026 0 100 2.052h12.996a1.026 1.026 0 100-2.052z" fill="url(#b)" transform="translate(5 10)"/></g></svg>