<svg xmlns:xlink="http://www.w3.org/1999/xlink" xmlns="http://www.w3.org/2000/svg" width="50" height="50"><defs><radialGradient cx="50%" cy="56.903%" fx="50%" fy="56.903%" r="431.446%" gradientTransform="matrix(0 .35417 -1 0 1.069 .392)" id="a"><stop stop-color="#2B436F" offset="0%"/><stop offset="100%"/></radialGradient></defs><g fill="none" fill-rule="evenodd"><rect width="192" height="84" rx="14" transform="translate(-17 -17)" stroke="#F0F0F0"/><path d="M26.921 46.278a1.558 1.558 0 010 2.255 1.688 1.688 0 01-2.33 0 1.558 1.558 0 010-2.255 1.688 1.688 0 012.33 0zm-.13-7.848l-.575 6.482a3.433 3.433 0 00-1.231 0l-.575-6.482.99.24c.131.031.27.031.4 0l.99-.24zM34 35.017v.835l-8.5 2.056-8.5-2.056v-.835h17zm-5.033-7.276v3.343l-3.033 1.689V29.43l1.76-.98 1.273-.709zm-6.673 0l1.274.71 1.76.98v3.342l-1.274-.71-1.76-.98v-3.342zm6.721-4.142v3.227l-3.312 1.907-2.644-1.335 5.956-3.8zm0-3.298v2.337l-6.72 4.357v-2.468l6.72-4.226zm-6.72-4.396l6.633 3.735-6.634 3.959v-7.694zm0-12.09l1.273.708 1.76.98v7.87c0 .011.002.022.004.033.001.014.002.03.006.043.003.012.01.022.014.033l.007.02.01.018.022.029c.009.01.015.021.026.031.008.009.02.014.029.022l.016.012.016.012.003.001 3.486 1.909v3.375l-6.673-3.716V3.815zm6.72 7.893v3.219l-3-1.61 3-1.609zm-.048-7.894v7.362l-1.759.98-1.274.709V5.503l1.76-.98 1.273-.71zM25.63 1l3.032 2.306-3.032 1.689-3.032-1.689L25.63 1z" fill="url(#a)" transform="rotate(43 25.5 25)"/></g></svg>