<svg xmlns:xlink="http://www.w3.org/1999/xlink" xmlns="http://www.w3.org/2000/svg" width="50" height="50"><g fill="none" fill-rule="evenodd"><rect width="192" height="84" rx="14" transform="translate(-17 -17)" stroke="#F0F0F0"/><path d="M25 2c12.713 0 23 10.287 23 23S37.713 48 25 48 2 37.713 2 25 12.287 2 25 2z" stroke="#FFF" fill="#4A4A4D"/><path d="M37.205 35.05c-.837 2.598-2.093 4.526-3.851 5.95-1.759 1.425-4.103 2.18-7.033 2.43l-.586-3.854c1.925-.252 3.349-.67 4.27-1.34.335-.252 1.004-1.006 1.004-1.006L24.06 14.94h5.777l4.019 16.675 4.27-16.675h5.61l-6.531 20.11zM17.028 14.186c1.34 0 2.595.168 3.6.587 1.088.419 2.093 1.006 3.098 1.844L21.38 19.8a9.18 9.18 0 00-1.925-1.09c-.586-.25-1.34-.335-2.01-.335-2.846 0-4.27 2.179-4.27 6.62 0 2.263.335 3.855 1.089 4.777.753 1.005 1.758 1.424 3.181 1.424.67 0 1.34-.084 1.926-.335a17.158 17.158 0 002.093-1.09l2.344 3.352c-1.925 1.593-4.102 2.347-6.614 2.347-2.01 0-3.684-.42-5.19-1.257a8.432 8.432 0 01-3.35-3.687c-.753-1.592-1.172-3.436-1.172-5.615 0-2.095.42-4.022 1.173-5.614.753-1.676 1.925-2.933 3.348-3.855a10.612 10.612 0 015.024-1.257z" fill="#FFF"/></g></svg>