<svg xmlns:xlink="http://www.w3.org/1999/xlink" xmlns="http://www.w3.org/2000/svg" width="50" height="50"><defs><linearGradient x1="69.705%" y1="40.772%" x2="32.242%" y2="54.662%" id="a"><stop stop-color="#2E4469" offset="0%"/><stop stop-color="#6F90BC" offset="100%"/></linearGradient><linearGradient x1="0%" y1="50%" x2="100%" y2="50%" id="b"><stop stop-color="#6F90BC" offset="0%"/><stop stop-color="#2E4469" offset="100%"/></linearGradient><linearGradient x1="0%" y1="50%" x2="100%" y2="50%" id="c"><stop stop-color="#6F90BC" offset="0%"/><stop stop-color="#2E4469" offset="100%"/></linearGradient><linearGradient x1="62.929%" y1="-23.583%" x2="25.483%" y2="142.519%" id="d"><stop stop-color="#56749D" offset="0%"/><stop stop-color="#25395B" offset="100%"/></linearGradient><linearGradient x1="20.279%" y1="28.715%" x2="77.708%" y2="66.909%" id="e"><stop stop-color="#5B79A2" offset="0%"/><stop stop-color="#2E4469" offset="100%"/></linearGradient><linearGradient x1="0%" y1="50%" x2="100%" y2="50%" id="f"><stop stop-color="#6F90BC" offset="0%"/><stop stop-color="#2E4469" offset="100%"/></linearGradient><linearGradient x1="20.279%" y1="40.54%" x2="77.708%" y2="57.515%" id="g"><stop stop-color="#5B79A2" offset="0%"/><stop stop-color="#2E4469" offset="100%"/></linearGradient><linearGradient x1="0%" y1="50%" x2="100%" y2="50%" id="h"><stop stop-color="#6F90BC" offset="0%"/><stop stop-color="#2E4469" offset="100%"/></linearGradient></defs><g transform="translate(3.5 8)" fill="none" fill-rule="evenodd"><g transform="translate(2.042)"><rect fill="url(#a)" transform="rotate(90 8.353 16.065)" x="-7.56" y="8.505" width="31.826" height="15.12" rx="2.439"/><g transform="rotate(90 5.045 8.033)"><rect fill="#2E4469" x=".472" y="6.143" width="7.56" height="2.835" rx="1.417"/><rect fill="#53B5FF" x="1.417" y="6.615" width="2.835" height="1.89" rx=".945"/><rect fill="#2E4469" x=".472" y=".472" width="7.56" height="2.835" rx="1.417"/><rect fill="#53B5FF" x="4.253" y=".945" width="2.835" height="1.89" rx=".945"/></g></g><path d="M21.123 13.415a.505.505 0 00-.466-.311h-5.523V.504A.504.504 0 0014.63 0H6.566a.504.504 0 00-.504.504v12.6H.518a.506.506 0 00-.356.86l10.054 10.088a.504.504 0 00.714 0l10.084-10.087a.503.503 0 00.109-.55z" fill="url(#b)" transform="rotate(-180 18.191 13.306)"/><path d="M19.397 11.615a.316.316 0 00.291.195h3.455v7.872c0 .174.141.315.316.315h5.044a.315.315 0 00.316-.315V11.81h3.468a.315.315 0 00.223-.537L26.22 4.97a.316.316 0 00-.446-.001l-6.31 6.303a.314.314 0 00-.067.343z" fill="#2E4469"/><rect fill="url(#c)" x="10.395" y="17.162" width="31.826" height="15.12" rx="2.439"/><g transform="translate(14.968 19.942)"><rect fill="#2E4469" y=".058" width="22.68" height="9" rx="2.439"/><path fill="#53B5FF" d="M2.492 2.556h18v1h-18z"/><path fill="#53B5FF" opacity=".326" d="M2.492 5.556h12v1h-12z"/><path fill="#53B5FF" d="M20.532 5.556h-4v1h4z"/></g><path d="M1.421 16.533c-2.246 0-1.228 13.358 7.196 11.584" stroke="url(#d)" stroke-width=".743"/><g transform="rotate(90 -5.746 9.054)"><rect fill="url(#e)" x=".743" y=".495" width="1.981" height="1.486" rx=".743"/><rect fill="url(#f)" width="3.467" height="1" rx=".5"/></g><g transform="matrix(0 -1 -1 0 10.395 31.337)"><rect fill="url(#g)" x="1.734" y=".495" width="2.972" height="1.486" rx=".743"/><rect fill="url(#h)" x=".248" width="5.944" height="1" rx=".5"/></g></g></svg>