<svg xmlns:xlink="http://www.w3.org/1999/xlink" xmlns="http://www.w3.org/2000/svg" width="50" height="50"><g fill="none"><path d="M30.305 29.552c-.537.624-1.074 1.247-1.611 1.693-.358.267-.716.445-1.074.712l-.179 14.606c1.521-.178 3.132-.534 4.654-.98l.089-14.428c-.09-.089-.179-.178-.179-.267-.537-.534-1.074-.98-1.7-1.336m-10.47-.178c-.627.356-1.164.802-1.701 1.336l-.269.267v14.518c1.522.534 3.043.801 4.564.98l.09-14.696c-.358-.178-.716-.445-1.074-.713-.626-.445-1.163-1.068-1.61-1.692" fill="#ED957A"/><path d="M25.114 3.1c-3.758 0-6.89 6.146-6.89 13.716 0 .713 0 1.425.089 2.138-2.953 2.137-4.922 5.522-4.922 9.44 0 1.693.358 3.207.984 4.632 1.164-2.672 3.401-4.899 6.175-6.056 1.164 2.226 2.774 3.562 4.564 3.562s3.4-1.336 4.654-3.562c2.685 1.157 4.922 3.384 6.085 6.056.627-1.425.985-3.028.985-4.631 0-3.92-1.88-7.393-4.833-9.441.09-.713.09-1.425.09-2.138-.18-7.481-3.222-13.715-6.98-13.715zm-.09 8.907c1.701 0 3.043 1.336 3.043 3.028s-1.342 3.028-3.042 3.028c-1.7 0-3.043-1.336-3.043-3.028.09-1.692 1.432-3.028 3.043-3.028z" fill="#E4562C"/><path d="M15.628 39.26c-2.327-2.048-3.937-4.81-4.564-8.015-1.7-.179-3.222-.357-4.564-.535.626 5.967 4.117 11.044 9.128 13.983V39.26zm-4.475-13.716c.269-1.246.806-2.493 1.343-3.651.179-.356.268-.712.447-.98a12.785 12.785 0 013.401-4.186v-1.336c0-1.157.09-2.226.18-3.295-5.281 2.761-9.129 7.927-9.934 13.983a169.13 169.13 0 014.563-.535zm23.179 19.06c4.922-2.85 8.412-8.016 9.128-13.983-1.342.178-2.864.445-4.564.534-.627 3.207-2.237 5.968-4.564 8.016v5.433zM43.37 26.08c-.805-6.056-4.563-11.133-9.844-13.894.09 1.069.18 2.138.18 3.295v1.335c1.342 1.158 2.505 2.583 3.31 4.186.18.357.359.624.448.98.627 1.069 1.074 2.316 1.343 3.562 1.7.179 3.221.357 4.563.535z" fill="#F56856"/></g></svg>