<svg xmlns="http://www.w3.org/2000/svg" xmlns:xlink="http://www.w3.org/1999/xlink" width="50" height="50"><defs><path id="a" d="M.033.062h49.906V50H.033z"/></defs><g fill="none" fill-rule="evenodd"><mask id="b" fill="#fff"><use xlink:href="#a"/></mask><path d="M48.997 22.807L27.193 1.004a3.216 3.216 0 00-4.548 0l-4.528 4.528 5.744 5.744a3.817 3.817 0 014.836 4.869l5.536 5.535A3.826 3.826 0 0138.187 28a3.827 3.827 0 01-6.246-4.163l-5.163-5.162V32.26a3.828 3.828 0 11-4.4 6.137 3.828 3.828 0 011.254-6.249v-13.71a3.826 3.826 0 01-2.077-5.018l-5.662-5.664L.942 22.706a3.218 3.218 0 000 4.55l21.805 21.803a3.217 3.217 0 004.548 0l21.702-21.702a3.218 3.218 0 000-4.55" fill="#0A0B09" mask="url(#b)"/></g></svg>