<svg xmlns="http://www.w3.org/2000/svg" xmlns:xlink="http://www.w3.org/1999/xlink" width="50" height="50"><defs><linearGradient x1="24.757%" y1="50%" x2="80.291%" y2="68.605%" id="e"><stop stop-color="#FFE474" stop-opacity=".131" offset="0%"/><stop stop-color="#FFC540" offset="100%"/></linearGradient><linearGradient x1="63.946%" y1="-23.583%" x2="32.054%" y2="76.981%" id="f"><stop stop-color="#56749D" offset="0%"/><stop stop-color="#25395B" offset="100%"/></linearGradient><linearGradient x1="18.656%" y1="18.019%" x2="92.09%" y2="87.288%" id="g"><stop stop-color="#5F80AB" offset="0%"/><stop stop-color="#293F64" offset="100%"/></linearGradient><linearGradient x1="50%" y1="0%" x2="50%" y2="100%" id="h"><stop stop-color="#5B79A2" offset="0%"/><stop stop-color="#2E4469" offset="100%"/></linearGradient><linearGradient x1="72.404%" y1="-23.583%" x2="21.171%" y2="76.981%" id="j"><stop stop-color="#56749D" offset="0%"/><stop stop-color="#25395B" offset="100%"/></linearGradient><linearGradient x1="151.989%" y1="44.482%" x2="-9.054%" y2="53.913%" id="q"><stop stop-color="#5B79A2" offset="0%"/><stop stop-color="#2E4469" offset="100%"/></linearGradient><linearGradient x1="151.989%" y1="48.686%" x2="-9.054%" y2="50.932%" id="r"><stop stop-color="#5B79A2" offset="0%"/><stop stop-color="#2E4469" offset="100%"/></linearGradient><linearGradient x1="151.989%" y1="42.487%" x2="-9.054%" y2="55.328%" id="s"><stop stop-color="#5B79A2" offset="0%"/><stop stop-color="#2E4469" offset="100%"/></linearGradient><linearGradient x1="8.332%" y1="50%" x2="100%" y2="57.469%" id="t"><stop stop-color="#FFE474" stop-opacity=".131" offset="0%"/><stop stop-color="#FFC540" offset="100%"/></linearGradient><linearGradient x1="170.812%" y1="54.288%" x2=".733%" y2="50.088%" id="u"><stop stop-color="#F2A27A" offset="0%"/><stop stop-color="#FFC73C" offset="100%"/></linearGradient><linearGradient x1="43.192%" y1="54.66%" x2="7.635%" y2="12.644%" id="v"><stop stop-color="#56749D" offset="0%"/><stop stop-color="#7093C2" offset="100%"/></linearGradient><linearGradient x1="47.179%" y1="11.947%" x2="53.788%" y2="94.368%" id="w"><stop stop-color="#5F80AB" offset="0%"/><stop stop-color="#293F64" offset="100%"/></linearGradient><filter x="-14.7%" y="-85.5%" width="129.5%" height="271%" filterUnits="objectBoundingBox" id="d"><feGaussianBlur stdDeviation="1.048" in="SourceGraphic"/></filter><filter x="-14.3%" y="-22.2%" width="128.6%" height="144.4%" filterUnits="objectBoundingBox" id="i"><feGaussianBlur stdDeviation=".735" in="SourceGraphic"/></filter><filter x="-12.8%" y="-66.1%" width="125.6%" height="232.1%" filterUnits="objectBoundingBox" id="l"><feGaussianBlur stdDeviation=".671" in="SourceGraphic"/></filter><filter x="-12.8%" y="-66.1%" width="125.6%" height="232.1%" filterUnits="objectBoundingBox" id="m"><feGaussianBlur stdDeviation=".671" in="SourceGraphic"/></filter><filter x="-35.8%" y="-66.1%" width="171.6%" height="232.1%" filterUnits="objectBoundingBox" id="o"><feGaussianBlur stdDeviation=".671" in="SourceGraphic"/></filter><filter x="-35.8%" y="-66.1%" width="171.6%" height="232.1%" filterUnits="objectBoundingBox" id="p"><feGaussianBlur stdDeviation=".671" in="SourceGraphic"/></filter><radialGradient cx="52.101%" cy="30.594%" fx="52.101%" fy="30.594%" r="283.017%" gradientTransform="matrix(-.17241 0 0 -.25522 .61 .384)" id="c"><stop offset="0%"/><stop stop-opacity=".002" offset="100%"/></radialGradient><radialGradient cx="39.224%" cy="42.672%" fx="39.224%" fy="42.672%" r="251.464%" gradientTransform="matrix(-.19405 0 0 -.25522 .468 .536)" id="k"><stop offset="0%"/><stop stop-opacity=".002" offset="100%"/></radialGradient><radialGradient cx="39.224%" cy="42.672%" fx="39.224%" fy="42.672%" r="90.077%" gradientTransform="matrix(-.54172 0 0 -.25522 .605 .536)" id="n"><stop offset="0%"/><stop stop-opacity=".002" offset="100%"/></radialGradient><path id="a" d="M0 0h50v50H0z"/></defs><g fill="none" fill-rule="evenodd"><mask id="b" fill="#fff"><use xlink:href="#a"/></mask><g mask="url(#b)"><g transform="translate(-4 -1)"><ellipse fill="url(#c)" filter="url(#d)" transform="rotate(1 -2460.958 1117.673)" cx="10.943" cy="2.587" rx="10.662" ry="1.838" opacity=".5"/><g transform="translate(37.702 32.516)"><path stroke="url(#e)" stroke-width=".735" d="M0 0l1.203 10.864 5.263-5.432 1.99 1.68"/><circle fill="#E3B156" cx="1.212" cy="10.85" r="1"/><path d="M1.11 9.93c.267 0 .504.128.653.326A.817.817 0 00.619 11.4a.817.817 0 01.491-1.47z" fill-opacity=".1" fill="#FFF"/><circle fill="#FAC446" cx="6.359" cy="5.703" r="1.287"/><path d="M6.298 4.416c.4 0 .757.192.98.49a1.225 1.225 0 00-1.715 1.716 1.225 1.225 0 01.735-2.206z" fill-opacity=".2" fill="#FFF"/></g><path d="M18.952 10.37s-4.296-1.807-2.504 3.764" stroke="url(#f)" stroke-width=".735"/><g transform="rotate(40 11.01 32.99)"><rect stroke="#1B283E" stroke-width=".5" fill="#1B283E" x="3.47" y=".878" width="31.618" height="28.676" rx="2.065"/><rect fill="url(#g)" x="2.941" y=".703" width="30.915" height="28.341" rx="1.967"/><rect fill="url(#h)" x="3.878" y="1.405" width="28.807" height="26.936" rx="1.882"/><ellipse style="mix-blend-mode:overlay" filter="url(#i)" cx="7.861" cy="5.213" rx="7.721" ry="4.963" transform="translate(10.937 24.703)" fill="#FAC446" opacity=".136"/><path stroke="url(#j)" stroke-width=".735" transform="rotate(-38 15.685 15.86)" d="M9.976 4.3l3.199 2.473 1.368 1.057 11.798 9.124-7.538 10.466L5.03 16.537"/><ellipse fill="url(#k)" opacity=".366" filter="url(#l)" transform="rotate(1 26.245 18.621)" cx="26.245" cy="18.621" rx="7.846" ry="1.522"/><ellipse fill="url(#k)" opacity=".366" filter="url(#m)" transform="rotate(1 26.01 25.882)" cx="26.01" cy="25.882" rx="7.846" ry="1.522"/><ellipse fill="url(#n)" opacity=".366" filter="url(#o)" transform="rotate(1 14.417 25.882)" cx="14.417" cy="25.882" rx="2.81" ry="1.522"/><ellipse fill="url(#n)" opacity=".366" filter="url(#p)" transform="rotate(1 8.328 25.882)" cx="8.328" cy="25.882" rx="2.81" ry="1.522"/><rect stroke="#1B283E" stroke-width=".5" fill="#1B283E" opacity=".7" x="11.661" y="3.279" width="19.853" height="14.522" rx="1.882"/><rect stroke="#1B283E" stroke-width=".5" fill="#1B283E" opacity=".7" x="18.633" y="20.612" width="12.881" height="4.685" rx=".941"/><rect stroke="#1B283E" stroke-width=".5" fill="#1B283E" opacity=".7" x="5.049" y="20.612" width="5.387" height="4.685" rx=".941"/><rect stroke="#1B283E" stroke-width=".5" fill="#1B283E" opacity=".7" x="11.656" y="20.657" width="5.387" height="4.685" rx=".941"/><rect fill="url(#q)" opacity=".502" x="11.56" y="2.811" width="19.485" height="14.522" rx="1.882"/><path d="M13.692 5.349l6.521-.035m-6.549 1.852l4.724-.124M13.765 9l6.52-.032m-6.702 2.104l5.673-.12m-5.853 2.193l6.52-.034m-6.42 1.869l3.293-.079" opacity=".562" stroke="#3D567B" stroke-linecap="round" stroke-linejoin="round" stroke-width=".551"/><rect fill="url(#r)" opacity=".502" x="18.164" y="20.378" width="12.881" height="4.685" rx=".941"/><rect fill="url(#s)" opacity=".502" x="4.815" y="20.378" width="5.387" height="4.685" rx=".941"/><rect fill="url(#s)" opacity=".502" x="11.422" y="20.423" width="5.387" height="4.685" rx=".941"/><path d="M22.46 13.117c-.21 0-.393-.023-.548-.068v-.79c.16.041.305.062.437.062.204 0 .35-.065.437-.195.088-.13.132-.332.132-.607V7.325h.928v4.188c0 .522-.116.92-.35 1.194-.234.273-.579.41-1.036.41zm5.073-2.56c0 .405-.143.723-.427.956-.285.232-.68.349-1.187.349-.468 0-.88-.09-1.24-.27v-.881c.295.134.545.23.75.284.205.056.392.083.561.083.204 0 .36-.04.47-.12.108-.079.162-.197.162-.354a.398.398 0 00-.072-.235.811.811 0 00-.21-.197 5.39 5.39 0 00-.568-.303 2.68 2.68 0 01-.602-.37 1.386 1.386 0 01-.32-.414 1.2 1.2 0 01-.12-.55c0-.396.131-.708.394-.934.262-.227.625-.34 1.088-.34.228 0 .445.028.651.083.207.055.423.132.649.232l-.3.738a4.317 4.317 0 00-.58-.205 1.827 1.827 0 00-.45-.058c-.176 0-.31.042-.404.125a.418.418 0 00-.14.328c0 .083.018.156.056.219a.632.632 0 00.181.18c.083.058.28.163.589.314.409.2.69.4.841.601.152.201.228.448.228.74z" fill="#5173AB"/></g><g transform="rotate(-5 391.557 -81.588)"><path stroke="url(#t)" stroke-width=".735" d="M9.412 2.84L7.77 8.804 2.61 3.458 0 5.145"/><circle fill="#FAC446" cx="7.957" cy="9.007" r="1.287"/><path d="M7.896 7.72c.4 0 .756.193.98.49A1.225 1.225 0 007.16 9.926a1.225 1.225 0 01.735-2.205z" fill-opacity=".2" fill="#FFF"/><circle fill="#E3B156" cx="2.626" cy="3.493" r="1"/><rect fill="url(#u)" transform="rotate(45 9.685 2.757)" x="7.038" y="1.838" width="5.294" height="1.838" rx=".735"/></g><path d="M15.687 9.722H40.75a.735.735 0 01.502 1.273L15.043 35.5a.735.735 0 01-1.238-.537v-23.36c0-1.039.843-1.882 1.882-1.882z" fill="url(#v)" opacity=".376" transform="rotate(40 28.209 23.19)"/><rect fill="url(#w)" transform="rotate(40 19 10.268)" x="18.449" y="8.43" width="1.103" height="3.676" rx=".551"/><path stroke="#3D567B" stroke-width=".551" stroke-linecap="round" stroke-linejoin="round" d="M24.78 30.005l7.72 6.491m-8.822-5.388l4.153 3.578m1.362 1.201l2.353 2.036"/></g></g></g></svg>