<svg xmlns="http://www.w3.org/2000/svg" xmlns:xlink="http://www.w3.org/1999/xlink" width="50" height="50"><defs><path id="a" d="M0 .092h36.382v34.925H0z"/></defs><g fill="none" fill-rule="evenodd"><path d="M8.89 39.81c1.55 1.086 3.229 1.93 4.997 2.592 3.248 1.215 6.615 1.654 10.048 1.282 5.888-.638 10.932-3.006 14.663-7.723 1.846-2.334 2.59-5.095 2.464-8.077-.256-6.005-4.778-10.78-10.17-12.064-4.967-1.183-9.4-.122-13.224 3.287-3.138 2.798-2.042 7.946 1.98 9.307 2.225.752 4.282.377 6.097-1.142.676-.565 1.381-.905 2.281-.557 1.339.517 1.74 2.07.708 3.056-2.258 2.159-4.985 3.036-8.08 2.73-2.56-.253-4.703-1.362-6.447-3.25-3.347-3.627-3.027-9.498.621-12.812 2.625-2.384 5.645-3.928 9.109-4.582 1.997-.378 4.013-.383 6.04-.096 3.057.433 5.815 1.56 8.272 3.398 3.445 2.575 5.726 5.967 6.508 10.2 1.027 5.552-.464 10.468-4.378 14.538-3.245 3.376-7.245 5.428-11.876 6.244-5.089.897-9.919.15-14.493-2.229-1.97-1.025-3.753-2.323-5.3-3.928-.028-.149.032-.207.18-.173" fill="#252D37"/><g transform="translate(4 5.036)"><mask id="b" fill="#fff"><use xlink:href="#a"/></mask><path d="M36.332 6.932c-1.2-.787-2.41-1.554-3.728-2.141a22.546 22.546 0 00-10.699-1.93c-4.503.274-8.549 1.772-12.151 4.48-2.736 2.057-4.77 4.618-5.487 8.03-.776 3.684-.167 7.17 2.136 10.177 3.756 4.906 8.782 6.55 14.766 5.265 2.68-.575 5.024-1.874 6.807-3.981 2.505-2.96 1.082-7.73-3.134-8.803-2.132-.543-4.027-.018-5.698 1.42-1.215 1.047-2.827.627-3.313-.817-.249-.74-.007-1.363.52-1.856 5.473-5.112 14.673-2.793 16.544 4.48.895 3.476-.145 6.526-2.777 8.985-2.07 1.934-4.481 3.285-7.206 4.066-1.979.567-3.986.778-6.054.691-3.593-.15-6.844-1.243-9.742-3.334C3.302 28.914.879 25.255.198 20.55-.665 14.59 1.316 9.637 5.749 5.677 10.454 1.475 16.053-.296 22.305.162c4.916.36 9.282 2.186 12.987 5.488.378.337.709.727 1.061 1.093.044.068.037.131-.02.189" fill="#252D37" mask="url(#b)"/></g></g></svg>