<svg xmlns:xlink="http://www.w3.org/1999/xlink" xmlns="http://www.w3.org/2000/svg" width="50" height="50"><g stroke="#000" fill="none" fill-rule="evenodd"><path stroke-width=".5" fill="#019833" fill-rule="nonzero" d="M25.141 3.482L3.636 25.016l21.416 21.445 21.505-21.535z"/><path stroke-width=".5" fill="#66FE98" fill-rule="nonzero" d="M25.052 3.571V1.687L1.664 25.106h1.972L25.052 3.57z"/><path stroke-width=".5" fill="#45FE02" fill-rule="nonzero" d="M24.998 3.571V1.687l23.387 23.419h-1.971L24.998 3.57z"/><path stroke-width=".5" fill="#017D17" fill-rule="nonzero" d="M25.052 46.586v1.885L1.664 25.05h1.972z"/><path stroke-width="2.516" d="M6.003 4.065h15.08l.919.92V7.81l-.729.888h-1.647V22.72L33.819 8.697h-2.345l-.823-.888V4.827l.76-.698h15.27l.76.761v2.792L12.91 43.148H8.981l-1.137-.657V8.57H5.94l-.697-.698V4.89z"/><path stroke-width=".5" fill="#005D04" fill-rule="nonzero" d="M24.998 46.586v1.885l23.387-23.42h-1.971L24.998 46.587z"/><path stroke-width=".755" d="M24.989 1.513L1.513 25.02l23.378 23.41 23.475-23.507z"/><path stroke-width=".5" fill="#FEFEFE" fill-rule="nonzero" d="M21.243 5.5l.852-.448-.874-.875H6.011l-.774.774v2.927l.857.858.41-.858-.539-.538V5.276l.404-.359h14.516z"/><path stroke-width=".5" d="M31.997 4.827l-.537.538v1.974l.47.471h2.486v1.908L17.974 26.406V7.834h2.733l.56-.562V5.274l-.517-.4H6.37l-.47.471v2.041l.478.48H8.88v34.199l.47.47h2.843l34.455-35.6v-1.57l-.537-.538z"/><path stroke-width=".5" fill="#FEFEFE" fill-rule="nonzero" d="M8.854 7.809v34.26l.444.508-.348.664-.983-.98V8.696z"/><path stroke-width=".5" fill="gray" fill-rule="nonzero" d="M6.397 7.809l-.253.824H7.98l1.014-.824z"/><path d="M31.638 8.735l.403-.83-.582-.538v-1.84l.672-.673h14.023l.538.718.761-.538-.784-.785H31.593l-.75.751v2.95l.778.735M19.437 22.849l-1.464 3.558 16.532-16.6V7.833L19.437 22.85z" stroke-width=".5" fill="#FEFEFE" fill-rule="nonzero"/><path stroke-width=".5" fill="gray" fill-rule="nonzero" d="M21.21 5.398l.728-.476v2.887l-.84.84h-1.63v14.228l-1.49 3.521V7.808h2.725l.507-.412z"/><path stroke-width=".5" fill="#CCC" fill-rule="nonzero" d="M31.997 4.827l-.537.538v1.974l.47.471h2.486v1.908L17.974 26.406V7.834h2.733l.56-.562V5.274l-.517-.4H6.37l-.47.471v2.041l.478.48H8.88v34.199l.47.47h2.843l34.455-35.6v-1.57l-.537-.538z"/><path stroke-width=".5" fill="gray" fill-rule="nonzero" d="M46.692 5.41l.765-.442v2.776L12.748 43.258H9.063l.352-.7h2.823L46.647 6.98zM34.436 7.856l-.776.81h-2.027l.475-.81h2.328z"/><g fill="#CCC" fill-rule="nonzero"><path d="M26.16 27.88a.155.155 0 00-.07.035l-.667.573a.155.155 0 00-.043.067l-.667 1.868a.155.155 0 00.036.161l.51.51a.153.153 0 00.109.044h2.058c.041 0 .08-.015.11-.044l.537-.541a.155.155 0 00.04-.067l.572-1.967a.155.155 0 00-.04-.153l-.443-.443a.155.155 0 00-.11-.044h-1.9a.154.154 0 00-.032 0zm-3.771 5.267a.155.155 0 00-.118.114l-.255 1.013a.155.155 0 00.15.192h1.21l-3.002 8.586a.155.155 0 00.145.204h4.37a.155.155 0 00.15-.106l.286-.923a.155.155 0 00-.15-.2h-.987l2.972-8.675a.155.155 0 00-.145-.205H22.42a.154.154 0 00-.031 0zm13.909.032a.155.155 0 00-.086.05l-.91 1.03h-1.447l-.964-1.002a.155.155 0 00-.11-.047h-3.453a.155.155 0 00-.146.102l-.317.95a.155.155 0 00.145.204h.925l-2.877 8.491a.155.155 0 00.145.205h3.677a.154.154 0 00.145-.103l.282-.828a.155.155 0 00-.145-.204h-.643l1.835-5.782h3.32l-2.093 6.716a.155.155 0 00.149.2h3.548a.155.155 0 00.141-.094l.318-.761a.155.155 0 00-.142-.212h-.643l1.867-5.88h3.16l-2.126 6.747a.155.155 0 00.15.2h3.896a.155.155 0 00.145-.098l.318-.828a.155.155 0 00-.145-.208h-.773l2.349-7.635a.155.155 0 00-.024-.141l-.729-.982a.155.155 0 00-.125-.059h-2.788a.155.155 0 00-.113.047l-.879.966H39.6l-.91-.997a.154.154 0 00-.114-.047H36.33a.154.154 0 00-.031 0z" stroke-width="1.009"/><path d="M26.191 28.032l-.666.574-.667 1.868.51.51h2.058l.537-.541.573-1.967-.443-.444H26.19zm-3.771 5.269l-.255 1.012h1.427l-3.073 8.79h4.37l.287-.923h-1.204l3.043-8.88H22.42zm13.91.031l-.953 1.08h-1.584l-1.012-1.049h-3.453l-.318.95h1.14l-2.947 8.695h3.677l.282-.828h-.854l1.932-6.088h3.646l-2.156 6.916h3.548l.317-.761h-.854l1.964-6.187h3.485l-2.188 6.948H43.9l.318-.828h-.984l2.41-7.835-.728-.982h-2.788l-.921 1.013h-1.678l-.953-1.044H36.33z" stroke-width=".5"/></g></g></svg>